Coordinates
version=1
nRows=15
nColumns=34
inDegrees=yes

Units are S.I. units (second, meters, Newtons, ...)
If the header above contains a line with 'inDegrees', this indicates whether rotational values are in degrees (yes) or radians (no).

endheader
time	pelvis_tilt	pelvis_list	pelvis_rotation	pelvis_tx	pelvis_ty	pelvis_tz	hip_flexion_r	hip_adduction_r	hip_rotation_r	knee_angle_r	ankle_angle_r	subtalar_angle_r	mtp_angle_r	hip_flexion_l	hip_adduction_l	hip_rotation_l	knee_angle_l	ankle_angle_l	subtalar_angle_l	mtp_angle_l	lumbar_extension	lumbar_bending	lumbar_rotation	arm_flex_r	arm_add_r	arm_rot_r	elbow_flex_r	pro_sup_r	arm_flex_l	arm_add_l	arm_rot_l	elbow_flex_l	pro_sup_l
      7.03333330	    -30.37886598	     -5.02934104	      6.70693009	     -0.05100399	      0.57946945	     -0.05093067	     97.54159806	    -19.99337088	      1.73290680	    105.99540890	     42.53816475	     -8.52638755	      0.00000000	    100.96734650	    -19.00080198	      5.58422402	    106.00759445	     34.04481856	     -7.80732969	      0.00000000	    -18.97197259	      1.92260318	      3.38609701	     92.41863102	      0.12001693	     73.50115826	    128.18343403	     91.71454884	     91.92339329	      4.37779611	     84.15228783	    121.89028509	     83.50361621
      7.05000000	    -30.81966958	     -5.12907283	      6.59821416	     -0.05370611	      0.56453044	     -0.04620909	    100.15400884	    -20.00008112	      2.50392863	    108.67441802	     42.87210713	     -8.51357204	      0.00000000	    103.61104310	    -19.31308310	      6.65255066	    108.33343242	     34.11462580	     -7.60675513	      0.00000000	    -19.33719714	      1.85861111	      3.45241755	     93.31616084	      0.09827870	     73.50776423	    128.10716288	     91.19983467	     93.28207378	      4.22028069	     84.65837891	    121.79280034	     83.46094629
      7.06666670	    -31.42889172	     -5.22748506	      6.46471966	     -0.05382890	      0.54798940	     -0.04940408	    102.74541131	    -20.11559157	      3.33284681	    111.02755729	     43.28312691	     -8.22187507	      0.00000000	    106.35313500	    -19.52753660	      7.57575104	    110.70195055	     34.61970523	     -6.96909623	      0.00000000	    -19.40700558	      1.94232297	      3.40065322	     93.94725443	      0.11316021	     73.69264988	    127.96484551	     90.72723234	     94.28239983	      4.21853833	     85.44617773	    121.62710789	     83.36136038
      7.08333330	    -31.55609104	     -5.38918871	      6.61700617	     -0.06235602	      0.52952281	     -0.04468872	    105.34266986	    -20.33847534	      4.22198356	    113.57104954	     43.29452836	     -8.11299858	      0.00000000	    109.05948776	    -19.50369815	      8.71667307	    112.96858144	     34.71836934	     -6.56519325	      0.00000000	    -20.23016283	      1.88160197	      3.17391008	     95.52529835	      0.18174116	     73.23027804	    127.82021418	     90.44816325	     96.02415959	      4.06418909	     85.40161512	    121.36713689	     83.27045892
      7.10000000	    -31.66386052	     -5.48017086	      6.56947664	     -0.06756684	      0.51206024	     -0.04613810	    108.12476453	    -20.51251035	      5.11567703	    115.96871942	     43.38312411	     -8.00949768	      0.00000000	    111.89327237	    -19.39032795	      9.84093874	    115.40136903	     34.62372457	     -6.17152654	      0.00000000	    -21.01987664	      1.89244597	      3.01801225	     96.99846860	      0.07607248	     72.70161834	    127.64350143	     90.14932429	     97.94262870	      3.83016883	     85.13475899	    121.05328386	     83.12702856
      7.11666670	    -32.24393716	     -5.57746844	      6.50897134	     -0.06595711	      0.49712660	     -0.04994845	    110.90131140	    -20.85231964	      6.13493466	    118.14870974	     43.46587259	     -7.52054918	      0.00000000	    114.91890672	    -19.20804304	     10.86260109	    117.81583079	     34.48616286	     -5.71732216	      0.00000000	    -21.09663083	      2.04883432	      2.73230488	     97.85871639	      0.12417088	     73.03712572	    127.86730591	     89.51317281	     99.16835917	      3.45445344	     85.38378817	    120.89187882	     82.74889385
      7.13333330	    -32.14844769	     -5.56329302	      6.33738953	     -0.06458429	      0.47992751	     -0.05025317	    113.07128619	    -21.15944326	      7.22659523	    120.40102714	     43.43680381	     -7.29868244	      0.00000000	    117.20202239	    -19.12598773	     12.04719026	    120.35184062	     34.40709337	     -5.59527529	      0.00000000	    -21.74472957	      2.08394373	      2.59306740	     98.65570928	      0.07565176	     72.80646402	    127.65505118	     89.35564918	    100.32073965	      3.18802306	     84.82209388	    120.44514454	     82.62410669
      7.15000000	    -32.41813627	     -5.48763367	      5.97706572	     -0.07218557	      0.46018412	     -0.05266082	    115.94776195	    -21.35797439	      8.55094711	    122.55030656	     43.39852615	     -6.52855714	      0.00000000	    119.99999986	    -18.87467861	     13.21896098	    122.86621114	     34.56442638	     -5.01899920	      0.00000000	    -21.83951386	      2.08219063	      2.64758235	     99.71467161	      0.37802239	     72.81105244	    127.72995574	     89.03903638	    101.27403636	      3.65986107	     84.61718011	    120.49585516	     82.40196624
      7.16666670	    -31.01059012	     -4.47868115	      6.31426005	     -0.07709325	      0.45403936	     -0.05229998	    117.10718094	    -21.56473198	     10.77168218	    124.23977991	     43.21567102	     -5.55139077	      0.00000000	    119.99999986	    -18.63569307	     13.01867619	    124.54078512	     34.54292749	     -4.70985196	      0.00000000	    -24.64963702	      1.37116604	      2.33138034	    101.66271931	      0.06680831	     72.47259925	    127.25020650	     88.66636594	    103.15374608	      3.89648035	     84.57517284	    120.18473014	     82.17040868
      7.18333330	    -29.59575968	     -3.60595593	      6.34589717	     -0.08264564	      0.44311202	     -0.05178095	    118.13547715	    -21.44220933	     12.53313415	    125.62167532	     43.11545210	     -4.45356074	      0.00000000	    119.99999986	    -18.41998377	     13.23461713	    126.06519287	     34.55633048	     -4.34940261	      0.00000000	    -27.55996669	      0.62397047	      2.11442906	    103.79022913	     -0.46475679	     71.86993322	    127.30587241	     87.79812982	    106.07583048	      4.12369144	     85.11768054	    120.07993751	     81.60805763
      7.20000000	    -28.33616833	     -2.91405773	      6.42720664	     -0.08127536	      0.43735070	     -0.05420654	    118.85407219	    -21.39191398	     14.03952206	    126.87108870	     42.56669975	     -3.95063228	      0.00000000	    119.99999986	    -18.14669537	     13.41032288	    127.49314710	     33.96670351	     -4.57067652	      0.00000000	    -30.21901906	      0.10608075	      2.11703634	    105.37353946	     -1.04766115	     72.25367272	    127.61869349	     79.69274474	    107.99165903	      4.72602432	     85.29619450	    118.73206221	     75.15491065
      7.21666670	    -27.33999739	     -2.28475755	      6.27364318	     -0.08033941	      0.42696289	     -0.05381364	    119.44075640	    -21.03576809	     15.40397461	    128.22930642	     42.29006291	     -3.81876559	      0.00000000	    119.99999986	    -18.12431575	     13.86626372	    128.97728721	     33.82159174	     -4.78669090	      0.00000000	    -32.30953475	     -0.39027597	      1.86082800	    106.40899748	     -0.93994526	     72.26638499	    127.00868211	     79.63348804	    109.21815006	      4.63612545	     84.99832398	    118.15924521	     75.05713824
      7.23333330	    -26.11677264	     -1.76761624	      6.06620759	     -0.07175287	      0.41321685	     -0.05629251	    119.84600161	    -20.95534558	     17.12449066	    130.16522339	     42.49009349	     -3.24596191	      0.00000000	    119.99999986	    -18.16316511	     14.92049790	    131.15902167	     33.98857153	     -4.66434651	      0.00000000	    -33.95860733	     -0.71044991	      1.69065600	    106.75238358	     -0.53427528	     73.10444134	    127.11569802	     79.55121003	    109.62725918	      4.59946842	     85.15452700	    118.17692596	     74.88252508
      7.25000000	    -24.61709374	     -1.50522179	      5.76978624	     -0.07778444	      0.40229867	     -0.05352790	    119.99999986	    -20.72482369	     18.35821023	    131.81695518	     42.62252622	     -2.41827938	      0.00000000	    119.99999986	    -18.15681873	     16.34506586	    133.06593689	     34.30711083	     -4.00046141	      0.00000000	    -35.89864755	     -1.03924443	      1.70511645	    107.46690118	     -0.07531609	     73.22160274	    126.97214433	     79.42009730	    110.57029689	      4.61060497	     85.00280684	    117.98097637	     74.70211513
      7.26666670	    -23.02485447	     -1.57222537	      5.62616108	     -0.07456480	      0.39176131	     -0.04912180	    119.99999986	    -20.54127087	     19.39343061	    133.80493923	     42.94085674	     -1.73859111	      0.00000000	    119.99999986	    -18.16692904	     18.45324532	    134.69992372	     34.66505659	     -2.82823277	      0.00000000	    -37.74582121	     -1.14954033	      1.79936886	    107.99614175	      0.40781878	     73.10826308	    126.77816306	     79.22320731	    111.46725447	      4.34242689	     84.72560227	    118.12697735	     74.46284994
